<mxfile host="Electron" agent="Mozilla/5.0 (X11; Linux x86_64) AppleWebKit/537.36 (KHTML, like Gecko) draw.io/27.0.9 Chrome/134.0.6998.205 Electron/35.4.0 Safari/537.36" version="27.0.9" pages="2">
  <diagram name="Módulos" id="kg7k66CQdBWr9jU29U3g">
    <mxGraphModel dx="1410" dy="872" grid="1" gridSize="10" guides="1" tooltips="1" connect="1" arrows="1" fold="1" page="1" pageScale="1" pageWidth="1169" pageHeight="827" math="0" shadow="0">
      <root>
        <mxCell id="0" />
        <mxCell id="1" parent="0" />
        <mxCell id="DwegPXyZ7HxNuzQq-i74-1" value="" style="rounded=0;whiteSpace=wrap;html=1;perimeterSpacing=1;fillColor=#FFE599;" parent="1" vertex="1">
          <mxGeometry x="100" y="30" width="670" height="580" as="geometry" />
        </mxCell>
        <mxCell id="DwegPXyZ7HxNuzQq-i74-2" value="Apresentação" style="rounded=0;whiteSpace=wrap;html=1;labelPosition=center;verticalLabelPosition=top;align=center;verticalAlign=bottom;fillColor=#CC8855;" parent="1" vertex="1">
          <mxGeometry x="230" y="170" width="160" height="410" as="geometry" />
        </mxCell>
        <mxCell id="DwegPXyZ7HxNuzQq-i74-3" value="Serviço" style="rounded=0;whiteSpace=wrap;html=1;labelPosition=center;verticalLabelPosition=top;align=center;verticalAlign=bottom;fillColor=#CC8855;" parent="1" vertex="1">
          <mxGeometry x="580" y="170" width="160" height="410" as="geometry" />
        </mxCell>
        <mxCell id="DwegPXyZ7HxNuzQq-i74-4" value="MAA" style="rounded=0;whiteSpace=wrap;html=1;" parent="1" vertex="1">
          <mxGeometry x="250" y="200" width="120" height="60" as="geometry" />
        </mxCell>
        <mxCell id="DwegPXyZ7HxNuzQq-i74-5" value="MSA" style="rounded=0;whiteSpace=wrap;html=1;" parent="1" vertex="1">
          <mxGeometry x="600" y="200" width="120" height="60" as="geometry" />
        </mxCell>
        <mxCell id="DwegPXyZ7HxNuzQq-i74-6" value="MSC" style="rounded=0;whiteSpace=wrap;html=1;" parent="1" vertex="1">
          <mxGeometry x="600" y="345" width="120" height="60" as="geometry" />
        </mxCell>
        <mxCell id="DwegPXyZ7HxNuzQq-i74-7" value="MSI" style="rounded=0;whiteSpace=wrap;html=1;" parent="1" vertex="1">
          <mxGeometry x="600" y="490" width="120" height="60" as="geometry" />
        </mxCell>
        <mxCell id="DwegPXyZ7HxNuzQq-i74-8" value="MAI" style="rounded=0;whiteSpace=wrap;html=1;" parent="1" vertex="1">
          <mxGeometry x="250" y="490" width="120" height="60" as="geometry" />
        </mxCell>
        <mxCell id="DwegPXyZ7HxNuzQq-i74-9" value="MAC" style="rounded=0;whiteSpace=wrap;html=1;" parent="1" vertex="1">
          <mxGeometry x="250" y="345" width="120" height="60" as="geometry" />
        </mxCell>
        <mxCell id="DwegPXyZ7HxNuzQq-i74-10" value="MP" style="rounded=0;whiteSpace=wrap;html=1;fillColor=#FFFFFF;" parent="1" vertex="1">
          <mxGeometry x="430" y="50" width="120" height="60" as="geometry" />
        </mxCell>
        <mxCell id="DwegPXyZ7HxNuzQq-i74-11" value="Use" style="endArrow=open;endSize=12;dashed=1;html=1;rounded=0;exitX=0;exitY=0.5;exitDx=0;exitDy=0;entryX=0;entryY=0.5;entryDx=0;entryDy=0;labelBackgroundColor=none;labelPosition=left;verticalLabelPosition=top;align=right;verticalAlign=bottom;" parent="1" source="DwegPXyZ7HxNuzQq-i74-10" target="DwegPXyZ7HxNuzQq-i74-17" edge="1">
          <mxGeometry x="-0.0011" width="160" relative="1" as="geometry">
            <mxPoint x="705" y="94.71" as="sourcePoint" />
            <mxPoint x="313.336" y="150" as="targetPoint" />
            <Array as="points">
              <mxPoint x="130" y="80" />
              <mxPoint x="130" y="300" />
              <mxPoint x="130" y="520" />
              <mxPoint x="150" y="520" />
            </Array>
            <mxPoint as="offset" />
          </mxGeometry>
        </mxCell>
        <mxCell id="DwegPXyZ7HxNuzQq-i74-12" value="IAA" style="ellipse;whiteSpace=wrap;html=1;aspect=fixed;labelPosition=center;verticalLabelPosition=top;align=center;verticalAlign=bottom;" parent="1" vertex="1">
          <mxGeometry x="160" y="220" width="20" height="20" as="geometry" />
        </mxCell>
        <mxCell id="DwegPXyZ7HxNuzQq-i74-13" value="" style="endArrow=none;html=1;rounded=0;exitX=0;exitY=0.5;exitDx=0;exitDy=0;entryX=1;entryY=0.5;entryDx=0;entryDy=0;" parent="1" source="DwegPXyZ7HxNuzQq-i74-4" target="DwegPXyZ7HxNuzQq-i74-12" edge="1">
          <mxGeometry width="50" height="50" relative="1" as="geometry">
            <mxPoint x="190" y="220" as="sourcePoint" />
            <mxPoint x="150" y="220" as="targetPoint" />
          </mxGeometry>
        </mxCell>
        <mxCell id="DwegPXyZ7HxNuzQq-i74-14" value="Use" style="endArrow=open;endSize=12;dashed=1;html=1;rounded=0;exitX=1;exitY=0.5;exitDx=0;exitDy=0;entryX=0;entryY=0.5;entryDx=0;entryDy=0;labelBackgroundColor=none;labelPosition=left;verticalLabelPosition=top;align=right;verticalAlign=bottom;" parent="1" source="DwegPXyZ7HxNuzQq-i74-4" target="DwegPXyZ7HxNuzQq-i74-15" edge="1">
          <mxGeometry width="160" relative="1" as="geometry">
            <mxPoint x="705" y="94.71" as="sourcePoint" />
            <mxPoint x="865" y="94.71" as="targetPoint" />
          </mxGeometry>
        </mxCell>
        <mxCell id="DwegPXyZ7HxNuzQq-i74-15" value="ISA" style="ellipse;whiteSpace=wrap;html=1;aspect=fixed;align=center;verticalAlign=bottom;labelPosition=center;verticalLabelPosition=top;" parent="1" vertex="1">
          <mxGeometry x="480" y="220" width="20" height="20" as="geometry" />
        </mxCell>
        <mxCell id="DwegPXyZ7HxNuzQq-i74-16" value="" style="endArrow=none;html=1;rounded=0;entryX=1;entryY=0.5;entryDx=0;entryDy=0;exitX=0;exitY=0.5;exitDx=0;exitDy=0;" parent="1" source="DwegPXyZ7HxNuzQq-i74-5" target="DwegPXyZ7HxNuzQq-i74-15" edge="1">
          <mxGeometry width="50" height="50" relative="1" as="geometry">
            <mxPoint x="740" y="210" as="sourcePoint" />
            <mxPoint x="790" y="160" as="targetPoint" />
          </mxGeometry>
        </mxCell>
        <mxCell id="DwegPXyZ7HxNuzQq-i74-17" value="IAI" style="ellipse;whiteSpace=wrap;html=1;aspect=fixed;labelPosition=center;verticalLabelPosition=top;align=center;verticalAlign=bottom;" parent="1" vertex="1">
          <mxGeometry x="160" y="510" width="20" height="20" as="geometry" />
        </mxCell>
        <mxCell id="DwegPXyZ7HxNuzQq-i74-18" value="" style="endArrow=none;html=1;rounded=0;exitX=0;exitY=0.5;exitDx=0;exitDy=0;entryX=1;entryY=0.5;entryDx=0;entryDy=0;" parent="1" target="DwegPXyZ7HxNuzQq-i74-17" edge="1">
          <mxGeometry width="50" height="50" relative="1" as="geometry">
            <mxPoint x="250" y="520" as="sourcePoint" />
            <mxPoint x="150" y="510" as="targetPoint" />
          </mxGeometry>
        </mxCell>
        <mxCell id="DwegPXyZ7HxNuzQq-i74-19" value="IAC" style="ellipse;whiteSpace=wrap;html=1;aspect=fixed;labelPosition=center;verticalLabelPosition=top;align=center;verticalAlign=bottom;" parent="1" vertex="1">
          <mxGeometry x="160" y="365" width="20" height="20" as="geometry" />
        </mxCell>
        <mxCell id="DwegPXyZ7HxNuzQq-i74-20" value="" style="endArrow=none;html=1;rounded=0;exitX=0;exitY=0.5;exitDx=0;exitDy=0;entryX=1;entryY=0.5;entryDx=0;entryDy=0;" parent="1" source="DwegPXyZ7HxNuzQq-i74-9" target="DwegPXyZ7HxNuzQq-i74-19" edge="1">
          <mxGeometry width="50" height="50" relative="1" as="geometry">
            <mxPoint x="230" y="375" as="sourcePoint" />
            <mxPoint x="130" y="365" as="targetPoint" />
          </mxGeometry>
        </mxCell>
        <mxCell id="DwegPXyZ7HxNuzQq-i74-21" value="" style="endArrow=open;endSize=12;dashed=1;html=1;rounded=0;entryX=0;entryY=0.5;entryDx=0;entryDy=0;" parent="1" target="DwegPXyZ7HxNuzQq-i74-12" edge="1">
          <mxGeometry width="160" relative="1" as="geometry">
            <mxPoint x="130" y="230" as="sourcePoint" />
            <mxPoint x="70" y="320" as="targetPoint" />
            <mxPoint as="offset" />
          </mxGeometry>
        </mxCell>
        <mxCell id="DwegPXyZ7HxNuzQq-i74-22" value="" style="endArrow=open;endSize=12;dashed=1;html=1;rounded=0;entryX=0;entryY=0.5;entryDx=0;entryDy=0;" parent="1" target="DwegPXyZ7HxNuzQq-i74-19" edge="1">
          <mxGeometry width="160" relative="1" as="geometry">
            <mxPoint x="130" y="375" as="sourcePoint" />
            <mxPoint x="180" y="250" as="targetPoint" />
            <mxPoint as="offset" />
          </mxGeometry>
        </mxCell>
        <mxCell id="DwegPXyZ7HxNuzQq-i74-23" value="Use" style="endArrow=open;endSize=12;dashed=1;html=1;rounded=0;exitX=1;exitY=0.5;exitDx=0;exitDy=0;entryX=0;entryY=0.5;entryDx=0;entryDy=0;labelBackgroundColor=none;labelPosition=left;verticalLabelPosition=top;align=right;verticalAlign=bottom;" parent="1" source="DwegPXyZ7HxNuzQq-i74-8" target="DwegPXyZ7HxNuzQq-i74-24" edge="1">
          <mxGeometry width="160" relative="1" as="geometry">
            <mxPoint x="380" y="240" as="sourcePoint" />
            <mxPoint x="875" y="104.71" as="targetPoint" />
          </mxGeometry>
        </mxCell>
        <mxCell id="DwegPXyZ7HxNuzQq-i74-24" value="ISI" style="ellipse;whiteSpace=wrap;html=1;aspect=fixed;labelPosition=center;verticalLabelPosition=top;align=center;verticalAlign=bottom;" parent="1" vertex="1">
          <mxGeometry x="480" y="510" width="20" height="20" as="geometry" />
        </mxCell>
        <mxCell id="DwegPXyZ7HxNuzQq-i74-25" value="" style="endArrow=none;html=1;rounded=0;entryX=1;entryY=0.5;entryDx=0;entryDy=0;exitX=0;exitY=0.5;exitDx=0;exitDy=0;" parent="1" source="DwegPXyZ7HxNuzQq-i74-7" target="DwegPXyZ7HxNuzQq-i74-24" edge="1">
          <mxGeometry width="50" height="50" relative="1" as="geometry">
            <mxPoint x="610" y="240" as="sourcePoint" />
            <mxPoint x="800" y="170" as="targetPoint" />
          </mxGeometry>
        </mxCell>
        <mxCell id="DwegPXyZ7HxNuzQq-i74-26" value="Use" style="endArrow=open;endSize=12;dashed=1;html=1;rounded=0;exitX=1;exitY=0.5;exitDx=0;exitDy=0;entryX=0;entryY=0.5;entryDx=0;entryDy=0;labelBackgroundColor=none;labelPosition=left;verticalLabelPosition=top;align=right;verticalAlign=bottom;" parent="1" source="DwegPXyZ7HxNuzQq-i74-9" target="DwegPXyZ7HxNuzQq-i74-27" edge="1">
          <mxGeometry width="160" relative="1" as="geometry">
            <mxPoint x="390" y="250" as="sourcePoint" />
            <mxPoint x="885" y="114.71" as="targetPoint" />
          </mxGeometry>
        </mxCell>
        <mxCell id="DwegPXyZ7HxNuzQq-i74-27" value="ISC" style="ellipse;whiteSpace=wrap;html=1;aspect=fixed;labelPosition=center;verticalLabelPosition=top;align=center;verticalAlign=bottom;" parent="1" vertex="1">
          <mxGeometry x="480" y="365" width="20" height="20" as="geometry" />
        </mxCell>
        <mxCell id="DwegPXyZ7HxNuzQq-i74-28" value="" style="endArrow=none;html=1;rounded=0;entryX=1;entryY=0.5;entryDx=0;entryDy=0;exitX=0;exitY=0.5;exitDx=0;exitDy=0;" parent="1" source="DwegPXyZ7HxNuzQq-i74-6" target="DwegPXyZ7HxNuzQq-i74-27" edge="1">
          <mxGeometry width="50" height="50" relative="1" as="geometry">
            <mxPoint x="620" y="250" as="sourcePoint" />
            <mxPoint x="810" y="180" as="targetPoint" />
          </mxGeometry>
        </mxCell>
      </root>
    </mxGraphModel>
  </diagram>
  <diagram id="PtGVtRdn5LUlm2KjyuHd" name="Estados da Apresentação">
    <mxGraphModel dx="1410" dy="2526" grid="1" gridSize="10" guides="1" tooltips="1" connect="1" arrows="0" fold="1" page="1" pageScale="1" pageWidth="1169" pageHeight="827" background="#FFFFFF" math="0" shadow="0">
      <root>
        <mxCell id="0" />
        <mxCell id="1" parent="0" />
        <mxCell id="Vn7ExLqYi56RLN0f7CBu-1" value="" style="rounded=0;whiteSpace=wrap;html=1;fillColor=#FFE599;" parent="1" vertex="1">
          <mxGeometry x="4" y="-1643" width="1156" height="593" as="geometry" />
        </mxCell>
        <mxCell id="3yBjUHZP0Z2mMpjm3s-S-2" style="edgeStyle=orthogonalEdgeStyle;rounded=0;orthogonalLoop=1;jettySize=auto;html=1;entryX=0;entryY=0.5;entryDx=0;entryDy=0;" parent="1" source="3yBjUHZP0Z2mMpjm3s-S-1" target="3yBjUHZP0Z2mMpjm3s-S-19" edge="1">
          <mxGeometry relative="1" as="geometry">
            <mxPoint x="319" y="-1504.09" as="targetPoint" />
          </mxGeometry>
        </mxCell>
        <mxCell id="3yBjUHZP0Z2mMpjm3s-S-1" value="" style="ellipse;shape=doubleEllipse;html=1;dashed=0;whiteSpace=wrap;aspect=fixed;fillColor=#000000;" parent="1" vertex="1">
          <mxGeometry x="15" y="-1545.09" width="80" height="80" as="geometry" />
        </mxCell>
        <mxCell id="3yBjUHZP0Z2mMpjm3s-S-3" value="" style="ellipse;html=1;shape=endState;fillColor=strokeColor;" parent="1" vertex="1">
          <mxGeometry x="700.99" y="-1571" width="80" height="80" as="geometry" />
        </mxCell>
        <mxCell id="3yBjUHZP0Z2mMpjm3s-S-49" style="edgeStyle=orthogonalEdgeStyle;rounded=0;orthogonalLoop=1;jettySize=auto;html=1;entryX=0.5;entryY=0;entryDx=0;entryDy=0;labelPosition=center;verticalLabelPosition=top;align=center;verticalAlign=bottom;" parent="1" source="3yBjUHZP0Z2mMpjm3s-S-18" target="3yBjUHZP0Z2mMpjm3s-S-3" edge="1">
          <mxGeometry relative="1" as="geometry">
            <Array as="points">
              <mxPoint x="269" y="-1596" />
              <mxPoint x="741" y="-1596" />
            </Array>
          </mxGeometry>
        </mxCell>
        <mxCell id="3yBjUHZP0Z2mMpjm3s-S-50" value="[Sair]" style="edgeLabel;html=1;align=center;verticalAlign=bottom;resizable=0;points=[];labelPosition=center;verticalLabelPosition=top;labelBackgroundColor=none;" parent="3yBjUHZP0Z2mMpjm3s-S-49" vertex="1" connectable="0">
          <mxGeometry x="-0.1762" relative="1" as="geometry">
            <mxPoint as="offset" />
          </mxGeometry>
        </mxCell>
        <mxCell id="3yBjUHZP0Z2mMpjm3s-S-18" value="Mostrando Login" style="swimlane;fontStyle=0;childLayout=stackLayout;horizontal=1;startSize=26;fillColor=#FFFFFF;horizontalStack=0;resizeParent=1;resizeParentMax=0;resizeLast=0;collapsible=1;marginBottom=0;whiteSpace=wrap;html=1;rounded=1;" parent="1" vertex="1">
          <mxGeometry x="199" y="-1544.09" width="140" height="104" as="geometry" />
        </mxCell>
        <mxCell id="3yBjUHZP0Z2mMpjm3s-S-19" value="on event/ Criar Conta" style="text;align=left;verticalAlign=top;spacingLeft=4;spacingRight=4;overflow=hidden;rotatable=0;points=[[0,0.5],[1,0.5]];portConstraint=eastwest;whiteSpace=wrap;html=1;fillColor=default;" parent="3yBjUHZP0Z2mMpjm3s-S-18" vertex="1">
          <mxGeometry y="26" width="140" height="26" as="geometry" />
        </mxCell>
        <mxCell id="3yBjUHZP0Z2mMpjm3s-S-20" value="on event/ Entrar" style="text;align=left;verticalAlign=top;spacingLeft=4;spacingRight=4;overflow=hidden;rotatable=0;points=[[0,0.5],[1,0.5]];portConstraint=eastwest;whiteSpace=wrap;html=1;fillColor=default;" parent="3yBjUHZP0Z2mMpjm3s-S-18" vertex="1">
          <mxGeometry y="52" width="140" height="26" as="geometry" />
        </mxCell>
        <mxCell id="3yBjUHZP0Z2mMpjm3s-S-48" value="on event/ Sair" style="text;align=left;verticalAlign=top;spacingLeft=4;spacingRight=4;overflow=hidden;rotatable=0;points=[[0,0.5],[1,0.5]];portConstraint=eastwest;whiteSpace=wrap;html=1;fillColor=default;rounded=1;strokeColor=none;" parent="3yBjUHZP0Z2mMpjm3s-S-18" vertex="1">
          <mxGeometry y="78" width="140" height="26" as="geometry" />
        </mxCell>
        <mxCell id="3yBjUHZP0Z2mMpjm3s-S-25" style="edgeStyle=orthogonalEdgeStyle;rounded=0;orthogonalLoop=1;jettySize=auto;html=1;entryX=0;entryY=0.5;entryDx=0;entryDy=0;exitX=0.5;exitY=1.003;exitDx=0;exitDy=0;exitPerimeter=0;" parent="1" source="3yBjUHZP0Z2mMpjm3s-S-48" target="3yBjUHZP0Z2mMpjm3s-S-37" edge="1">
          <mxGeometry relative="1" as="geometry">
            <mxPoint x="398.1400000000001" y="-1324.916" as="targetPoint" />
            <Array as="points">
              <mxPoint x="269" y="-1389" />
            </Array>
          </mxGeometry>
        </mxCell>
        <mxCell id="3yBjUHZP0Z2mMpjm3s-S-42" value="[Criar Conta] ou [Entrar]" style="edgeLabel;html=1;align=center;verticalAlign=bottom;resizable=0;points=[];labelPosition=center;verticalLabelPosition=top;labelBackgroundColor=none;" parent="3yBjUHZP0Z2mMpjm3s-S-25" vertex="1" connectable="0">
          <mxGeometry x="0.1401" y="-2" relative="1" as="geometry">
            <mxPoint x="8" y="-2" as="offset" />
          </mxGeometry>
        </mxCell>
        <mxCell id="3yBjUHZP0Z2mMpjm3s-S-40" style="edgeStyle=orthogonalEdgeStyle;rounded=0;orthogonalLoop=1;jettySize=auto;html=1;entryX=1;entryY=0.5;entryDx=0;entryDy=0;" parent="1" source="3yBjUHZP0Z2mMpjm3s-S-37" target="3yBjUHZP0Z2mMpjm3s-S-19" edge="1">
          <mxGeometry relative="1" as="geometry" />
        </mxCell>
        <mxCell id="3yBjUHZP0Z2mMpjm3s-S-43" value="[Erro de Validação]" style="edgeLabel;html=1;align=center;verticalAlign=bottom;resizable=0;points=[];labelPosition=center;verticalLabelPosition=top;labelBackgroundColor=none;" parent="3yBjUHZP0Z2mMpjm3s-S-40" vertex="1" connectable="0">
          <mxGeometry x="0.0812" relative="1" as="geometry">
            <mxPoint as="offset" />
          </mxGeometry>
        </mxCell>
        <mxCell id="3yBjUHZP0Z2mMpjm3s-S-44" style="edgeStyle=orthogonalEdgeStyle;rounded=0;orthogonalLoop=1;jettySize=auto;html=1;entryX=0;entryY=0.5;entryDx=0;entryDy=0;" parent="1" source="3yBjUHZP0Z2mMpjm3s-S-37" target="3yBjUHZP0Z2mMpjm3s-S-47" edge="1">
          <mxGeometry relative="1" as="geometry">
            <mxPoint x="700.9900000000002" y="-1389" as="targetPoint" />
            <Array as="points" />
          </mxGeometry>
        </mxCell>
        <mxCell id="3yBjUHZP0Z2mMpjm3s-S-54" value="[Validação Correta]" style="edgeLabel;html=1;align=center;verticalAlign=bottom;resizable=0;points=[];labelPosition=center;verticalLabelPosition=top;labelBackgroundColor=none;" parent="3yBjUHZP0Z2mMpjm3s-S-44" vertex="1" connectable="0">
          <mxGeometry x="-0.4595" relative="1" as="geometry">
            <mxPoint x="26" y="1" as="offset" />
          </mxGeometry>
        </mxCell>
        <mxCell id="3yBjUHZP0Z2mMpjm3s-S-37" value="" style="rhombus;whiteSpace=wrap;html=1;fillColor=default;" parent="1" vertex="1">
          <mxGeometry x="500.99" y="-1429" width="80" height="80" as="geometry" />
        </mxCell>
        <mxCell id="Vn7ExLqYi56RLN0f7CBu-2" style="edgeStyle=orthogonalEdgeStyle;rounded=0;orthogonalLoop=1;jettySize=auto;html=1;entryX=0.25;entryY=0;entryDx=0;entryDy=0;labelPosition=center;verticalLabelPosition=top;align=center;verticalAlign=bottom;exitX=1;exitY=0.068;exitDx=0;exitDy=0;exitPerimeter=0;" parent="1" source="3yBjUHZP0Z2mMpjm3s-S-45" target="3yBjUHZP0Z2mMpjm3s-S-18" edge="1">
          <mxGeometry relative="1" as="geometry">
            <Array as="points">
              <mxPoint x="975" y="-1438" />
              <mxPoint x="975" y="-1620" />
              <mxPoint x="234" y="-1620" />
            </Array>
          </mxGeometry>
        </mxCell>
        <mxCell id="Vn7ExLqYi56RLN0f7CBu-3" value="[Excluir Conta] ou [LogOut]" style="edgeLabel;html=1;align=center;verticalAlign=bottom;resizable=0;points=[];labelPosition=center;verticalLabelPosition=top;labelBackgroundColor=none;" parent="Vn7ExLqYi56RLN0f7CBu-2" vertex="1" connectable="0">
          <mxGeometry x="0.0833" relative="1" as="geometry">
            <mxPoint as="offset" />
          </mxGeometry>
        </mxCell>
        <mxCell id="3yBjUHZP0Z2mMpjm3s-S-45" value="Mostrando Conta" style="swimlane;fontStyle=0;childLayout=stackLayout;horizontal=1;startSize=26;horizontalStack=0;resizeParent=1;resizeParentMax=0;resizeLast=0;collapsible=1;marginBottom=0;whiteSpace=wrap;html=1;rounded=1;fillColor=default;" parent="1" vertex="1">
          <mxGeometry x="764" y="-1454" width="160" height="234" as="geometry" />
        </mxCell>
        <mxCell id="3yBjUHZP0Z2mMpjm3s-S-46" value="on event/ Sair" style="text;align=left;verticalAlign=top;spacingLeft=4;spacingRight=4;overflow=hidden;rotatable=0;points=[[0,0.5],[1,0.5]];portConstraint=eastwest;whiteSpace=wrap;html=1;fillColor=default;" parent="3yBjUHZP0Z2mMpjm3s-S-45" vertex="1">
          <mxGeometry y="26" width="160" height="26" as="geometry" />
        </mxCell>
        <mxCell id="3yBjUHZP0Z2mMpjm3s-S-47" value="on event/ Mudar Nome" style="text;align=left;verticalAlign=top;spacingLeft=4;spacingRight=4;overflow=hidden;rotatable=0;points=[[0,0.5],[1,0.5]];portConstraint=eastwest;whiteSpace=wrap;html=1;fillColor=default;" parent="3yBjUHZP0Z2mMpjm3s-S-45" vertex="1">
          <mxGeometry y="52" width="160" height="26" as="geometry" />
        </mxCell>
        <mxCell id="3yBjUHZP0Z2mMpjm3s-S-55" value="on event/ Criar Carteira" style="text;align=left;verticalAlign=top;spacingLeft=4;spacingRight=4;overflow=hidden;rotatable=0;points=[[0,0.5],[1,0.5]];portConstraint=eastwest;whiteSpace=wrap;html=1;fillColor=default;" parent="3yBjUHZP0Z2mMpjm3s-S-45" vertex="1">
          <mxGeometry y="78" width="160" height="26" as="geometry" />
        </mxCell>
        <mxCell id="3yBjUHZP0Z2mMpjm3s-S-59" value="on event/ Acessar Carteira" style="text;align=left;verticalAlign=top;spacingLeft=4;spacingRight=4;overflow=hidden;rotatable=0;points=[[0,0.5],[1,0.5]];portConstraint=eastwest;whiteSpace=wrap;html=1;fillColor=default;" parent="3yBjUHZP0Z2mMpjm3s-S-45" vertex="1">
          <mxGeometry y="104" width="160" height="26" as="geometry" />
        </mxCell>
        <mxCell id="3yBjUHZP0Z2mMpjm3s-S-56" value="on event/ Listar Carteiras" style="text;align=left;verticalAlign=top;spacingLeft=4;spacingRight=4;overflow=hidden;rotatable=0;points=[[0,0.5],[1,0.5]];portConstraint=eastwest;whiteSpace=wrap;html=1;fillColor=default;" parent="3yBjUHZP0Z2mMpjm3s-S-45" vertex="1">
          <mxGeometry y="130" width="160" height="26" as="geometry" />
        </mxCell>
        <mxCell id="3yBjUHZP0Z2mMpjm3s-S-57" value="on event/ Excluir Carteira" style="text;align=left;verticalAlign=top;spacingLeft=4;spacingRight=4;overflow=hidden;rotatable=0;points=[[0,0.5],[1,0.5]];portConstraint=eastwest;whiteSpace=wrap;html=1;fillColor=default;" parent="3yBjUHZP0Z2mMpjm3s-S-45" vertex="1">
          <mxGeometry y="156" width="160" height="26" as="geometry" />
        </mxCell>
        <mxCell id="3yBjUHZP0Z2mMpjm3s-S-58" value="on event/ Excluir Conta" style="text;align=left;verticalAlign=top;spacingLeft=4;spacingRight=4;overflow=hidden;rotatable=0;points=[[0,0.5],[1,0.5]];portConstraint=eastwest;whiteSpace=wrap;html=1;fillColor=default;" parent="3yBjUHZP0Z2mMpjm3s-S-45" vertex="1">
          <mxGeometry y="182" width="160" height="26" as="geometry" />
        </mxCell>
        <mxCell id="q04wsM1dkHjkiSUqSHaf-14" value="on event/ LogOut" style="text;align=left;verticalAlign=top;spacingLeft=4;spacingRight=4;overflow=hidden;rotatable=0;points=[[0,0.5],[1,0.5]];portConstraint=eastwest;whiteSpace=wrap;html=1;fillColor=default;rounded=1;strokeColor=none;" vertex="1" parent="3yBjUHZP0Z2mMpjm3s-S-45">
          <mxGeometry y="208" width="160" height="26" as="geometry" />
        </mxCell>
        <mxCell id="3yBjUHZP0Z2mMpjm3s-S-52" style="edgeStyle=orthogonalEdgeStyle;rounded=0;orthogonalLoop=1;jettySize=auto;html=1;entryX=1;entryY=0.5;entryDx=0;entryDy=0;labelPosition=center;verticalLabelPosition=top;align=center;verticalAlign=bottom;" parent="1" source="3yBjUHZP0Z2mMpjm3s-S-45" target="3yBjUHZP0Z2mMpjm3s-S-3" edge="1">
          <mxGeometry relative="1" as="geometry">
            <Array as="points">
              <mxPoint x="850.99" y="-1531" />
            </Array>
          </mxGeometry>
        </mxCell>
        <mxCell id="3yBjUHZP0Z2mMpjm3s-S-53" value="[Sair]" style="edgeLabel;html=1;align=center;verticalAlign=bottom;resizable=0;points=[];labelPosition=center;verticalLabelPosition=top;labelBackgroundColor=none;" parent="3yBjUHZP0Z2mMpjm3s-S-52" vertex="1" connectable="0">
          <mxGeometry x="0.1406" y="-1" relative="1" as="geometry">
            <mxPoint x="-21" y="3" as="offset" />
          </mxGeometry>
        </mxCell>
        <mxCell id="q04wsM1dkHjkiSUqSHaf-2" value="Mostrando Carteira" style="swimlane;fontStyle=0;childLayout=stackLayout;horizontal=1;startSize=26;horizontalStack=0;resizeParent=1;resizeParentMax=0;resizeLast=0;collapsible=1;marginBottom=0;whiteSpace=wrap;html=1;rounded=1;fillColor=default;" vertex="1" parent="1">
          <mxGeometry x="975" y="-1240" width="159" height="182" as="geometry" />
        </mxCell>
        <mxCell id="q04wsM1dkHjkiSUqSHaf-4" value="on event/ Voltar" style="text;align=left;verticalAlign=top;spacingLeft=4;spacingRight=4;overflow=hidden;rotatable=0;points=[[0,0.5],[1,0.5]];portConstraint=eastwest;whiteSpace=wrap;html=1;fillColor=default;" vertex="1" parent="q04wsM1dkHjkiSUqSHaf-2">
          <mxGeometry y="26" width="159" height="26" as="geometry" />
        </mxCell>
        <mxCell id="q04wsM1dkHjkiSUqSHaf-15" value="on event/ Editar Carteira" style="text;align=left;verticalAlign=top;spacingLeft=4;spacingRight=4;overflow=hidden;rotatable=0;points=[[0,0.5],[1,0.5]];portConstraint=eastwest;whiteSpace=wrap;html=1;fillColor=default;" vertex="1" parent="q04wsM1dkHjkiSUqSHaf-2">
          <mxGeometry y="52" width="159" height="26" as="geometry" />
        </mxCell>
        <mxCell id="q04wsM1dkHjkiSUqSHaf-3" value="on event/ Listar Ordens" style="text;align=left;verticalAlign=top;spacingLeft=4;spacingRight=4;overflow=hidden;rotatable=0;points=[[0,0.5],[1,0.5]];portConstraint=eastwest;whiteSpace=wrap;html=1;fillColor=default;" vertex="1" parent="q04wsM1dkHjkiSUqSHaf-2">
          <mxGeometry y="78" width="159" height="26" as="geometry" />
        </mxCell>
        <mxCell id="q04wsM1dkHjkiSUqSHaf-5" value="on event/ Fazer Ordem" style="text;align=left;verticalAlign=top;spacingLeft=4;spacingRight=4;overflow=hidden;rotatable=0;points=[[0,0.5],[1,0.5]];portConstraint=eastwest;whiteSpace=wrap;html=1;fillColor=default;" vertex="1" parent="q04wsM1dkHjkiSUqSHaf-2">
          <mxGeometry y="104" width="159" height="26" as="geometry" />
        </mxCell>
        <mxCell id="q04wsM1dkHjkiSUqSHaf-6" value="on event/ Cancelar Ordem" style="text;align=left;verticalAlign=top;spacingLeft=4;spacingRight=4;overflow=hidden;rotatable=0;points=[[0,0.5],[1,0.5]];portConstraint=eastwest;whiteSpace=wrap;html=1;fillColor=default;" vertex="1" parent="q04wsM1dkHjkiSUqSHaf-2">
          <mxGeometry y="130" width="159" height="26" as="geometry" />
        </mxCell>
        <mxCell id="q04wsM1dkHjkiSUqSHaf-7" value="on event/ Excluir Ordem" style="text;align=left;verticalAlign=top;spacingLeft=4;spacingRight=4;overflow=hidden;rotatable=0;points=[[0,0.5],[1,0.5]];portConstraint=eastwest;whiteSpace=wrap;html=1;fillColor=default;rounded=1;strokeColor=none;" vertex="1" parent="q04wsM1dkHjkiSUqSHaf-2">
          <mxGeometry y="156" width="159" height="26" as="geometry" />
        </mxCell>
        <mxCell id="q04wsM1dkHjkiSUqSHaf-10" style="edgeStyle=orthogonalEdgeStyle;rounded=0;orthogonalLoop=1;jettySize=auto;html=1;exitX=1;exitY=0.5;exitDx=0;exitDy=0;entryX=0.5;entryY=0;entryDx=0;entryDy=0;" edge="1" parent="1" source="3yBjUHZP0Z2mMpjm3s-S-59" target="q04wsM1dkHjkiSUqSHaf-2">
          <mxGeometry relative="1" as="geometry" />
        </mxCell>
        <mxCell id="q04wsM1dkHjkiSUqSHaf-11" value="[Acessar Carteira]" style="edgeLabel;html=1;align=center;verticalAlign=bottom;resizable=0;points=[];labelPosition=center;verticalLabelPosition=top;labelBackgroundColor=none;" vertex="1" connectable="0" parent="q04wsM1dkHjkiSUqSHaf-10">
          <mxGeometry x="-0.2095" y="-2" relative="1" as="geometry">
            <mxPoint x="-2" y="-2" as="offset" />
          </mxGeometry>
        </mxCell>
        <mxCell id="q04wsM1dkHjkiSUqSHaf-12" style="edgeStyle=orthogonalEdgeStyle;rounded=0;orthogonalLoop=1;jettySize=auto;html=1;exitX=0;exitY=0.5;exitDx=0;exitDy=0;entryX=0.5;entryY=1.003;entryDx=0;entryDy=0;entryPerimeter=0;" edge="1" parent="1" source="q04wsM1dkHjkiSUqSHaf-15" target="q04wsM1dkHjkiSUqSHaf-14">
          <mxGeometry relative="1" as="geometry">
            <mxPoint x="860.99" y="-1219.91" as="targetPoint" />
          </mxGeometry>
        </mxCell>
        <mxCell id="q04wsM1dkHjkiSUqSHaf-13" value="[Voltar]" style="edgeLabel;html=1;align=center;verticalAlign=bottom;resizable=0;points=[];labelPosition=center;verticalLabelPosition=top;labelBackgroundColor=none;" vertex="1" connectable="0" parent="q04wsM1dkHjkiSUqSHaf-12">
          <mxGeometry x="-0.2768" relative="1" as="geometry">
            <mxPoint as="offset" />
          </mxGeometry>
        </mxCell>
      </root>
    </mxGraphModel>
  </diagram>
</mxfile>
